/* XPM */
static char * bitcoin16_xpm[] = {
"16 16 164 2",
"  	c None",
". 	c #727F94",
"+ 	c #959DAE",
"@ 	c #8B96A9",
"# 	c #5D6B85",
"$ 	c #476285",
"% 	c #ABBDD0",
"& 	c #D6E1EC",
"* 	c #F0F6F9",
"= 	c #F3F7FA",
"- 	c #E0E9F1",
"; 	c #95ADC4",
"> 	c #456287",
", 	c #07244D",
"' 	c #2E5E8E",
") 	c #76A3C5",
"! 	c #B3D0E2",
"~ 	c #BAD6E6",
"{ 	c #CEE2EE",
"] 	c #CEE3EE",
"^ 	c #BBD8E7",
"/ 	c #CDDFEC",
"( 	c #7CA9C9",
"_ 	c #2D5E8D",
": 	c #02224D",
"< 	c #072348",
"[ 	c #0C4D87",
"} 	c #3980B1",
"| 	c #569BC2",
"1 	c #A4D2E3",
"2 	c #8AC0D9",
"3 	c #9ACBDF",
"4 	c #A3CFE1",
"5 	c #B8DAE8",
"6 	c #9BCBDF",
"7 	c #D5EAF1",
"8 	c #4099C2",
"9 	c #0D528D",
"0 	c #012048",
"a 	c #03376C",
"b 	c #0F6CA6",
"c 	c #227DAF",
"d 	c #3993BD",
"e 	c #65B3D0",
"f 	c #AEDCE9",
"g 	c #8FD2E3",
"h 	c #7EC1D9",
"i 	c #8CD4E5",
"j 	c #53AFCE",
"k 	c #41A8CA",
"l 	c #349BC1",
"m 	c #0C679F",
"n 	c #03396A",
"o 	c #06538C",
"p 	c #50A0C4",
"q 	c #148FBC",
"r 	c #29A2C6",
"s 	c #3BA8CB",
"t 	c #79D9E8",
"u 	c #5ACADF",
"v 	c #8ED2E3",
"w 	c #4BB3D2",
"x 	c #3BAFCE",
"y 	c #269EC4",
"z 	c #87D2E0",
"A 	c #119CC8",
"B 	c #05578C",
"C 	c #1E456A",
"D 	c #075E96",
"E 	c #0A83B3",
"F 	c #1389B7",
"G 	c #1F9EC4",
"H 	c #37BFD7",
"I 	c #2DA8C8",
"J 	c #9AD4DB",
"K 	c #36AECE",
"L 	c #30A1C1",
"M 	c #289DBD",
"N 	c #1D9CC4",
"O 	c #0F8BB3",
"P 	c #0F8CB7",
"Q 	c #0973A8",
"R 	c #022E56",
"S 	c #214F74",
"T 	c #0A689D",
"U 	c #158CB9",
"V 	c #219EC5",
"W 	c #31A9B9",
"X 	c #15424F",
"Y 	c #4DC6DB",
"Z 	c #15404C",
"` 	c #0B1A1E",
" .	c #173F47",
"..	c #1D5967",
"+.	c #1C718A",
"@.	c #072028",
"#.	c #1B98B7",
"$.	c #043754",
"%.	c #043862",
"&.	c #1183B1",
"*.	c #188FBC",
"=.	c #38C0D9",
"-.	c #164451",
";.	c #0D252C",
">.	c #4DA1AF",
",.	c #204C56",
"'.	c #3F92A4",
").	c #0F2428",
"!.	c #295D66",
"~.	c #46C1DB",
"{.	c #1A6D87",
"].	c #0E4656",
"^.	c #094C71",
"/.	c #0B5881",
"(.	c #54B7D2",
"_.	c #5EA2AB",
":.	c #45BAD6",
"<.	c #2E646E",
"[.	c #447E89",
"}.	c #5EB9CB",
"|.	c #68D2E6",
"1.	c #3C727C",
"2.	c #4499AB",
"3.	c #3990A3",
"4.	c #339CB3",
"5.	c #277784",
"6.	c #0D5F86",
"7.	c #255B78",
"8.	c #2292B3",
"9.	c #3FBCD9",
"0.	c #7ADDEC",
"a.	c #9EE6F4",
"b.	c #93E6F5",
"c.	c #85E4F4",
"d.	c #84E2F2",
"e.	c #87E3F4",
"f.	c #68D2E7",
"g.	c #53C6E1",
"h.	c #39AFD0",
"i.	c #30A3C0",
"j.	c #1B6984",
"k.	c #3BA5C1",
"l.	c #5EC8DF",
"m.	c #99E4F1",
"n.	c #A7ECF7",
"o.	c #C5F5FC",
"p.	c #C2F4FB",
"q.	c #ACECF7",
"r.	c #91E2F0",
"s.	c #72D7E7",
"t.	c #81D3E0",
"u.	c #67A2B7",
"v.	c #4BA2B6",
"w.	c #73CCDB",
"x.	c #9FE7F1",
"y.	c #B5F0F7",
"z.	c #9FEBF5",
"A.	c #8EE1EE",
"B.	c #72CADA",
"C.	c #49A2B6",
"D.	c #79C1CC",
"E.	c #90CDD5",
"F.	c #82C9D3",
"G.	c #6BB8C5",
"                                ",
"            . + @ #             ",
"        $ % & * = - ; >         ",
"    , ' ) ! ~ { ] ^ / ( _ :     ",
"  < [ } | 1 2 3 4 5 6 7 8 9 0   ",
"  a b c d e f g h i j k l m n   ",
"  o p q r s t u v w x y z A B   ",
"C D E F G H I J K L M N O P Q R ",
"S T U V W X Y Z `  ...+.@.#.$.%.",
"  &.*.=.-.;.>.,.'.).!.~.{.].^.  ",
"  /.(._.:.<.[.}.|.1.2.3.4.5.6.  ",
"  7.8.9.0.a.b.c.d.e.f.g.h.i.    ",
"    j.k.l.m.n.o.p.q.r.s.t.u.    ",
"        v.w.x.y.z.A.B.C.        ",
"            D.E.F.G.            ",
"                                "};
