/* XPM */
static char * bitcoin32_xpm[] = {
"32 32 635 2",
"  	c None",
". 	c #1C2F52",
"+ 	c #425677",
"@ 	c #70819A",
"# 	c #C2C9D2",
"$ 	c #D8DBE2",
"% 	c #D3D8E1",
"& 	c #CFD5DF",
"* 	c #BAC3D0",
"= 	c #97A3B6",
"- 	c #697891",
"; 	c #415371",
"> 	c #0C1F42",
", 	c #2A4164",
"' 	c #7F94AF",
") 	c #AFBFD1",
"! 	c #CDD8E5",
"~ 	c #E2E8F0",
"{ 	c #F0F5F8",
"] 	c #FAFBFD",
"^ 	c #FCFEFF",
"/ 	c #F6F9FB",
"( 	c #E3EAF2",
"_ 	c #C6D4E1",
": 	c #A2B4CA",
"< 	c #6B829F",
"[ 	c #2D4568",
"} 	c #10264B",
"| 	c #001435",
"1 	c #122D56",
"2 	c #46678D",
"3 	c #7B99B8",
"4 	c #BACCDE",
"5 	c #B5CBDE",
"6 	c #CBDCEA",
"7 	c #DCE8F1",
"8 	c #E6EFF5",
"9 	c #EBF2F7",
"0 	c #EEF4F8",
"a 	c #E7F0F5",
"b 	c #F0F6F9",
"c 	c #E1EBF2",
"d 	c #B0C8DC",
"e 	c #97B4CD",
"f 	c #7696B6",
"g 	c #476D95",
"h 	c #0F2A53",
"i 	c #051B3E",
"j 	c #163B6C",
"k 	c #396594",
"l 	c #668FB5",
"m 	c #7EA7C7",
"n 	c #BDD3E4",
"o 	c #ABCADE",
"p 	c #BDD7E6",
"q 	c #CCDFEC",
"r 	c #D6E6F0",
"s 	c #DAE9F1",
"t 	c #D9E9F2",
"u 	c #C9DEEB",
"v 	c #CEE2ED",
"w 	c #E1EDF4",
"x 	c #99BBD4",
"y 	c #A3C2D8",
"z 	c #6693B7",
"A 	c #376290",
"B 	c #0D325F",
"C 	c #01193E",
"D 	c #071F43",
"E 	c #0D396D",
"F 	c #245C93",
"G 	c #4B80AD",
"H 	c #6499BF",
"I 	c #71A5C8",
"J 	c #B8D4E4",
"K 	c #A0C6DC",
"L 	c #AACDE0",
"M 	c #B7D5E6",
"N 	c #BFDAE9",
"O 	c #C3DEEB",
"P 	c #C4DDEB",
"Q 	c #C2DDEB",
"R 	c #BBD8E7",
"S 	c #A4C9DF",
"T 	c #BCD7E6",
"U 	c #F4F8FB",
"V 	c #89B5D1",
"W 	c #6098BF",
"X 	c #4B86B1",
"Y 	c #276294",
"Z 	c #083467",
"` 	c #001C41",
" .	c #072044",
"..	c #053162",
"+.	c #125490",
"@.	c #3072A6",
"#.	c #4788B5",
"$.	c #5797C0",
"%.	c #65A3C6",
"&.	c #A1CBDF",
"*.	c #9FCADE",
"=.	c #92C1DA",
"-.	c #9DC9DF",
";.	c #A5CEE2",
">.	c #AAD1E3",
",.	c #A8D1E3",
"'.	c #A2CDE1",
").	c #ADD3E4",
"!.	c #B9D8E8",
"~.	c #B7D7E6",
"{.	c #A4CADE",
"].	c #FFFFFD",
"^.	c #B0D6E5",
"/.	c #5FC0D8",
"(.	c #409FCA",
"_.	c #1667AC",
":.	c #043770",
"<.	c #011D45",
"[.	c #0F2747",
"}.	c #022855",
"|.	c #06457F",
"1.	c #196CA6",
"2.	c #2C78AB",
"3.	c #3B87B6",
"4.	c #4994BE",
"5.	c #569FC5",
"6.	c #72B3D1",
"7.	c #A5D8E6",
"8.	c #7AB8D3",
"9.	c #84BFD8",
"0.	c #8AC3DA",
"a.	c #89C2DA",
"b.	c #92C6DD",
"c.	c #C9E3EE",
"d.	c #B8DBE9",
"e.	c #92C6DC",
"f.	c #A6DCEA",
"g.	c #8CCBDE",
"h.	c #ADCFE0",
"i.	c #A1DAE8",
"j.	c #3184B3",
"k.	c #2879AB",
"l.	c #17649C",
"m.	c #07477F",
"n.	c #022B57",
"o.	c #04254D",
"p.	c #033A6F",
"q.	c #095994",
"r.	c #1673AC",
"s.	c #2279AD",
"t.	c #2E85B5",
"u.	c #3A91BC",
"v.	c #489BC2",
"w.	c #4FA2C6",
"x.	c #8CD1E3",
"y.	c #8DC4D9",
"z.	c #71B9D3",
"A.	c #93D0E2",
"B.	c #AEDFEB",
"C.	c #A3D5E6",
"D.	c #7ABFD7",
"E.	c #82C7DC",
"F.	c #A8DFEC",
"G.	c #63B3D0",
"H.	c #4EA2C6",
"I.	c #429AC1",
"J.	c #62C8DD",
"K.	c #41A9CA",
"L.	c #1D78AC",
"M.	c #146CA4",
"N.	c #095893",
"O.	c #033F73",
"P.	c #01224A",
"Q.	c #3C516B",
"R.	c #013569",
"S.	c #05508D",
"T.	c #1A71A6",
"U.	c #2480B1",
"V.	c #187AAE",
"W.	c #2488B6",
"X.	c #3093BE",
"Y.	c #3CA1C5",
"Z.	c #45AECD",
"`.	c #A9D7E4",
" +	c #FEFEFE",
".+	c #A5E2ED",
"++	c #75C5DC",
"@+	c #5CB3D0",
"#+	c #89C5DB",
"$+	c #AFDDE9",
"%+	c #96E3EF",
"&+	c #6EC8DD",
"*+	c #61C3DB",
"=+	c #52BDD7",
"-+	c #42B4D1",
";+	c #32A8C9",
">+	c #6EDEEB",
",+	c #4C93B8",
"'+	c #0C6EA6",
")+	c #08649E",
"!+	c #054F87",
"~+	c #033260",
"{+	c #0F2C4D",
"]+	c #033D70",
"^+	c #0666A4",
"/+	c #8BC6DD",
"(+	c #99D4E5",
"_+	c #17AFD1",
":+	c #30C2D9",
"<+	c #39C4DB",
"[+	c #3EC2D9",
"}+	c #42B7D3",
"|+	c #4BAECD",
"1+	c #7ECDE0",
"2+	c #5DC4DB",
"3+	c #60C2DA",
"4+	c #78D9E8",
"5+	c #D6F6FA",
"6+	c #E3F0F4",
"7+	c #5CBDD7",
"8+	c #4CB3D0",
"9+	c #41ADCE",
"0+	c #34A2C7",
"a+	c #2CA0C4",
"b+	c #28A7C9",
"c+	c #CDE5E9",
"d+	c #E3F1F4",
"e+	c #119CC6",
"f+	c #076CA5",
"g+	c #065B94",
"h+	c #044073",
"i+	c #012348",
"j+	c #00254D",
"k+	c #04477C",
"l+	c #065F98",
"m+	c #1679AD",
"n+	c #1A84B4",
"o+	c #0C7EB0",
"p+	c #1387B6",
"q+	c #1C8FBA",
"r+	c #2397BF",
"s+	c #2B9DC4",
"t+	c #32A2C7",
"u+	c #4ECBDF",
"v+	c #89EFF5",
"w+	c #57CADF",
"x+	c #5FD3E5",
"y+	c #56C2DA",
"z+	c #4AB0CF",
"A+	c #3DABCC",
"B+	c #39A9CB",
"C+	c #36ACCD",
"D+	c #2A9FC4",
"E+	c #2199C0",
"F+	c #188FBA",
"G+	c #2591BA",
"H+	c #33D1E3",
"I+	c #0889B8",
"J+	c #0DAAD5",
"K+	c #097EB3",
"L+	c #054A7F",
"M+	c #022A52",
"N+	c #002D58",
"O+	c #054F86",
"P+	c #07659E",
"Q+	c #0975AB",
"R+	c #0D85B5",
"S+	c #0F82B3",
"T+	c #138BB8",
"U+	c #1993BD",
"V+	c #1F99C1",
"W+	c #2CAECD",
"X+	c #45D5E6",
"Y+	c #3FBED8",
"Z+	c #35AACB",
"`+	c #C5EDF1",
" @	c #9DE1E8",
".@	c #3BADCD",
"+@	c #3AADCE",
"@@	c #36ACCC",
"#@	c #32A9CB",
"$@	c #30AFCE",
"%@	c #259FC6",
"&@	c #1E9BC2",
"*@	c #1895BE",
"=@	c #128AB8",
"-@	c #17B7D2",
";@	c #13A6C8",
">@	c #0871A7",
",@	c #0B92C7",
"'@	c #076CA6",
")@	c #03335D",
"!@	c #00325F",
"~@	c #06548A",
"{@	c #086AA1",
"]@	c #0C7BAD",
"^@	c #1190BB",
"/@	c #1389B8",
"(@	c #1892BC",
"_@	c #1D99C1",
":@	c #2CB8D5",
"<@	c #3AD1E3",
"[@	c #2CA7CA",
"}@	c #31ABCD",
"|@	c #34AECD",
"1@	c #8BDDE7",
"2@	c #74D9E8",
"3@	c #40BAD6",
"4@	c #37B0D0",
"5@	c #34ACCC",
"6@	c #30A9CC",
"7@	c #30B0CD",
"8@	c #25A2C6",
"9@	c #22A0C6",
"0@	c #1D9AC1",
"a@	c #1891BC",
"b@	c #179EC3",
"c@	c #21D0E3",
"d@	c #0B7AAD",
"e@	c #086CA0",
"f@	c #0872AF",
"g@	c #044070",
"h@	c #003664",
"i@	c #06588D",
"j@	c #0B70A5",
"k@	c #0F7EB1",
"l@	c #1694BE",
"m@	c #1991BD",
"n@	c #1E97C0",
"o@	c #32C1DA",
"p@	c #2B96A5",
"q@	c #02080B",
"r@	c #2D9DBA",
"s@	c #36B1D1",
"t@	c #42A6B4",
"u@	c #030809",
"v@	c #277588",
"w@	c #0A181B",
"x@	c #328EA0",
"y@	c #2C8FAA",
"z@	c #020709",
"A@	c #216D7E",
"B@	c #0B2831",
"C@	c #135163",
"D@	c #24A1C7",
"E@	c #104D61",
"F@	c #020C0E",
"G@	c #27C6D5",
"H@	c #1082B0",
"I@	c #042838",
"J@	c #054065",
"K@	c #054576",
"L@	c #003C6B",
"M@	c #086095",
"N@	c #0E73A7",
"O@	c #1383B3",
"P@	c #1B96BF",
"Q@	c #2FB7D3",
"R@	c #3DCEE3",
"S@	c #164D5C",
"T@	c #051216",
"U@	c #3091A9",
"V@	c #44BCD8",
"W@	c #4FB0BB",
"X@	c #091A1E",
"Y@	c #47BFDC",
"Z@	c #19444E",
"`@	c #285D64",
" #	c #5CC9D6",
".#	c #000102",
"+#	c #40BAD5",
"@#	c #1E6173",
"##	c #0A252C",
"$#	c #2CACD1",
"%#	c #14576B",
"&#	c #07242E",
"*#	c #1A6869",
"=#	c #18A0D0",
"-#	c #052E41",
";#	c #086497",
">#	c #033D67",
",#	c #00325A",
"'#	c #0D7AB1",
")#	c #1287B6",
"!#	c #1685B5",
"~#	c #1D95BF",
"{#	c #2BADCD",
"]#	c #42D7EA",
"^#	c #18576B",
"/#	c #2F8EA7",
"(#	c #11343D",
"_#	c #286D7E",
":#	c #6FE0EE",
"<#	c #326F7A",
"[#	c #15333A",
"}#	c #47ADC6",
"|#	c #091518",
"1#	c #3D97AD",
"2#	c #3A93A8",
"3#	c #040707",
"4#	c #3C8B9A",
"5#	c #13363E",
"6#	c #35A8C6",
"7#	c #33B1D5",
"8#	c #0E3742",
"9#	c #2290B5",
"0#	c #040906",
"a#	c #188AAC",
"b#	c #063349",
"c#	c #0B6699",
"d#	c #04385E",
"e#	c #254D6C",
"f#	c #095683",
"g#	c #18A3C7",
"h#	c #22B0D0",
"i#	c #1E93BF",
"j#	c #41CEE2",
"k#	c #34A2B9",
"l#	c #266C7C",
"m#	c #163B43",
"n#	c #1F464E",
"o#	c #81EBF8",
"p#	c #1D4047",
"q#	c #1A3C42",
"r#	c #397E8D",
"s#	c #58C7DD",
"t#	c #5ACDE6",
"u#	c #2E6A77",
"v#	c #1F464F",
"w#	c #439AAD",
"x#	c #0E1B1C",
"y#	c #68EDFE",
"z#	c #43BAD2",
"A#	c #12404D",
"B#	c #2DB2DC",
"C#	c #0D3E4D",
"D#	c #06232E",
"E#	c #0A4967",
"F#	c #0B618F",
"G#	c #053A61",
"H#	c #094E76",
"I#	c #1372A0",
"J#	c #26A6C7",
"K#	c #8ADDE8",
"L#	c #82D7E4",
"M#	c #0B2D37",
"N#	c #39A2BD",
"O#	c #4AC4E1",
"P#	c #2F7686",
"Q#	c #0E1312",
"R#	c #6CC9D8",
"S#	c #040A0C",
"T#	c #408594",
"U#	c #67D4EB",
"V#	c #65D0E7",
"W#	c #60CADF",
"X#	c #0A181C",
"Y#	c #3E7F8C",
"Z#	c #5ACCE5",
"`#	c #081416",
" $	c #307887",
".$	c #388FA0",
"+$	c #1F565F",
"@$	c #42D0E7",
"#$	c #41B9C8",
"$$	c #030000",
"%$	c #126F8F",
"&$	c #0A5A86",
"*$	c #0E486A",
"=$	c #116A93",
"-$	c #1F87B2",
";$	c #8BCCDE",
">$	c #95D8E0",
",$	c #3F9CA8",
"'$	c #3FA4BC",
")$	c #50C7E3",
"!$	c #4399AC",
"~$	c #61A7B2",
"{$	c #569AA7",
"]$	c #52A1B1",
"^$	c #57A7B5",
"/$	c #71D8EB",
"($	c #5FB7C8",
"_$	c #52A0AE",
":$	c #589FAB",
"<$	c #5DCAE1",
"[$	c #52BDD5",
"}$	c #388B9E",
"|$	c #31859B",
"1$	c #2B849C",
"2$	c #2C9DC0",
"3$	c #45D1E5",
"4$	c #1F7E98",
"5$	c #116791",
"6$	c #09466A",
"7$	c #0E577B",
"8$	c #1A7EA6",
"9$	c #2FB5D1",
"0$	c #32B0D1",
"a$	c #52C7DF",
"b$	c #82E5F1",
"c$	c #6CD3E6",
"d$	c #60CDE4",
"e$	c #9DE7F2",
"f$	c #7DDCEC",
"g$	c #79DCED",
"h$	c #7EDFEF",
"i$	c #7FE0F0",
"j$	c #7FE0F1",
"k$	c #7CDEEF",
"l$	c #7CDCED",
"m$	c #7CDBED",
"n$	c #68D2E7",
"o$	c #5FCCE2",
"p$	c #54C5DE",
"q$	c #49BCD8",
"r$	c #3EB3D3",
"s$	c #33A8CC",
"t$	c #4CD6E6",
"u$	c #208BAF",
"v$	c #105C7F",
"w$	c #1D5774",
"x$	c #166A8E",
"y$	c #31ABC6",
"z$	c #38AECD",
"A$	c #43B5D5",
"B$	c #55C4DE",
"C$	c #7DDBEC",
"D$	c #A7E9F4",
"E$	c #F1F9FC",
"F$	c #B8E7F3",
"G$	c #80E2F1",
"H$	c #88E4F3",
"I$	c #8EE7F4",
"J$	c #8CE6F4",
"K$	c #88E4F2",
"L$	c #93E5F3",
"M$	c #7CDDEE",
"N$	c #73D8EA",
"O$	c #67D1E6",
"P$	c #5BC9E1",
"Q$	c #4EBFDC",
"R$	c #41B4D4",
"S$	c #32ADCD",
"T$	c #48D3E1",
"U$	c #186E90",
"V$	c #0E516F",
"W$	c #1A5A77",
"X$	c #268CA8",
"Y$	c #37A4C2",
"Z$	c #44B2D0",
"`$	c #55C3DD",
" %	c #68D0E6",
".%	c #81DAEC",
"+%	c #D2F1F8",
"@%	c #BBEEF7",
"#%	c #C4F3F9",
"$%	c #CAF5FB",
"%%	c #BAF2FA",
"&%	c #A1EDF8",
"*%	c #98EAF6",
"=%	c #95E8F4",
"-%	c #7EDFF0",
";%	c #75D9EC",
">%	c #5CCAE1",
",%	c #4FBFDA",
"'%	c #47B4D1",
")%	c #A3D8E3",
"!%	c #7FC8D7",
"~%	c #146B8F",
"{%	c #1B6681",
"]%	c #2E8CA7",
"^%	c #40A5BF",
"/%	c #54BCD4",
"(%	c #65CCE1",
"_%	c #78D9EA",
":%	c #AFEBF5",
"<%	c #9CE9F5",
"[%	c #90E9F5",
"}%	c #9DEDF8",
"|%	c #B5F3FC",
"1%	c #CEF8FC",
"2%	c #D9F8FC",
"3%	c #CCF5FB",
"4%	c #C6F2F9",
"5%	c #B9EEF6",
"6%	c #A7EAF3",
"7%	c #94E5F0",
"8%	c #7BDEEA",
"9%	c #5ECFDD",
"0%	c #8ECFD9",
"a%	c #7DA2B1",
"b%	c #33859D",
"c%	c #4BA8BE",
"d%	c #5FBFD3",
"e%	c #70D0E1",
"f%	c #92E0EE",
"g%	c #B3EEF6",
"h%	c #99EAF6",
"i%	c #9EEDF8",
"j%	c #A3EFFA",
"k%	c #AFF2FA",
"l%	c #9DECF7",
"m%	c #91E8F4",
"n%	c #85E2EF",
"o%	c #78D8E9",
"p%	c #69CCDF",
"q%	c #58BCD2",
"r%	c #45A3BB",
"s%	c #379AAF",
"t%	c #39889B",
"u%	c #4B9DAF",
"v%	c #63B8C9",
"w%	c #76CCD9",
"x%	c #A4E2EB",
"y%	c #98E1EC",
"z%	c #CBF0F4",
"A%	c #BAECF3",
"B%	c #9BE6F0",
"C%	c #94E3EE",
"D%	c #8BDDEA",
"E%	c #7FD5E3",
"F%	c #71C8D8",
"G%	c #5DB4C6",
"H%	c #4599AC",
"I%	c #5DABB9",
"J%	c #72BCC8",
"K%	c #85CAD4",
"L%	c #9AD3DA",
"M%	c #94D3DB",
"N%	c #8CD2DC",
"O%	c #83CCD7",
"P%	c #75C1CD",
"Q%	c #66B4C2",
"R%	c #57A6B4",
"                                                                ",
"                                                                ",
"                                                                ",
"                    . + @ # $ % & * = - ;                       ",
"                > , ' ) ! ~ { ] ^ / ( _ : < [ }                 ",
"            | 1 2 3 4 5 6 7 8 9 0 a b c d e f g h               ",
"          i j k l m n o p q r s t s u v w x y z A B C           ",
"        D E F G H I J K L M N O P Q R S T U V W X Y Z `         ",
"       ...+.@.#.$.%.&.*.=.-.;.>.,.'.).!.~.{.].^./.(._.:.<.      ",
"    [.}.|.1.2.3.4.5.6.7.8.9.0.a.b.c.d.e.f.g.h.i.j.k.l.m.n.      ",
"    o.p.q.r.s.t.u.v.w.x.y.z.A.B.C.D.E.F.G.H.I.J.K.L.M.N.O.P.    ",
"  Q.R.S.T.U.V.W.X.Y.Z.`. +.+++@+#+$+%+&+*+=+-+;+>+,+'+)+!+~+    ",
"  {+]+^+/+(+_+:+<+[+}+|+1+2+3+4+5+6+7+8+9+0+a+b+c+d+e+f+g+h+i+  ",
"  j+k+l+m+n+o+p+q+r+s+t+u+v+w+x+y+z+A+B+C+D+E+F+G+H+I+J+K+L+M+  ",
"  N+O+P+Q+R+S+T+U+V+W+X+Y+Z+`+ @.@+@@@#@$@%@&@*@=@-@;@>@,@'@)@  ",
"  !@~@{@]@^@/@(@_@:@<@[@}@|@1@2@3@4@5@6@7@8@9@0@a@b@c@d@e@f@g@  ",
"  h@i@j@k@l@m@n@o@p@q@r@s@t@u@v@w@x@y@z@A@B@C@D@E@F@G@H@I@J@K@  ",
"  L@M@N@O@P@V+Q@R@S@T@U@V@W@X@Y@Z@`@ #.#+#@###$#%#&#*#=#-#;#>#  ",
"  ,#'#)#!#~#{#]#^#/#(#_#:#<#[#}#|#1#2#3#4#5#6#7#8#9#0#a#b#c#d#  ",
"  e#f#g#h#i#j#k#(#l#m#n#o#p#q#r#s#t#u#v#w#x#y#z#A#B#C#D#E#F#G#  ",
"    H#I#J#K#L#M#N#O#P#Q#R#S#T#U#V#W#X#Y#Z#`# $.$+$@$#$$$%$&$    ",
"    *$=$-$;$>$,$'$)$!$~${$]$^$/$/$($_$:$<$[$}$|$1$2$3$4$5$6$    ",
"      7$8$9$0$a$b$c$d$e$f$g$h$i$j$k$l$m$n$o$p$q$r$s$t$u$v$      ",
"      w$x$y$z$A$B$C$D$E$F$G$H$I$J$K$L$M$N$O$P$Q$R$S$T$U$V$      ",
"        W$X$Y$Z$`$ %.%+%@%#%$%%%&%*%=%-%;%n$>%,%'%)%!%~%        ",
"          {%]%^%/%(%_%:%<%[%}%|%1%2%3%4%5%6%7%8%9%0%a%          ",
"              b%c%d%e%f%g%h%i%j%k%l%m%n%o%p%q%r%s%              ",
"                t%u%v%w%x%y%z%A%B%C%D%E%F%G%H%                  ",
"                      I%J%K%L%M%N%O%P%Q%R%                      ",
"                                                                ",
"                                                                ",
"                                                                "};
