<?xml version="1.0" standalone="no"?>
<!DOCTYPE svg PUBLIC "-//W3C//DTD SVG 20010904//EN"
 "http://www.w3.org/TR/2001/REC-SVG-20010904/DTD/svg10.dtd">
<svg version="1.0" xmlns="http://www.w3.org/2000/svg"
 width="512.000000pt" height="512.000000pt" viewBox="0 0 512.000000 512.000000"
 preserveAspectRatio="xMidYMid meet">
<metadata>
Created by potrace 1.16, written by Peter Selinger 2001-2019
</metadata>
<g transform="translate(0.000000,512.000000) scale(0.100000,-0.100000)"
fill="#000000" stroke="none">
<path d="M2250 4700 c-8 -5 -47 -10 -87 -10 -39 0 -75 -4 -78 -10 -3 -5 -28
-10 -56 -10 -27 0 -49 -4 -49 -10 0 -5 -20 -10 -45 -10 -25 0 -45 -4 -45 -10
0 -5 -18 -10 -39 -10 -22 0 -43 -4 -46 -10 -3 -5 -19 -10 -36 -10 -16 0 -29
-4 -29 -10 0 -5 -16 -10 -35 -10 -19 0 -35 -4 -35 -10 0 -5 -11 -10 -25 -10
-14 0 -25 -4 -25 -10 0 -5 -13 -10 -30 -10 -16 0 -30 -4 -30 -10 0 -5 -11 -10
-25 -10 -14 0 -25 -4 -25 -10 0 -5 -11 -10 -25 -10 -14 0 -25 -4 -25 -10 0 -5
-9 -10 -19 -10 -11 0 -23 -4 -26 -10 -3 -5 -15 -10 -26 -10 -10 0 -19 -4 -19
-10 0 -5 -9 -10 -20 -10 -11 0 -20 -4 -20 -10 0 -5 -6 -10 -13 -10 -18 0 -67
-24 -67 -32 0 -5 -9 -8 -20 -8 -11 0 -20 -4 -20 -10 0 -5 -7 -10 -15 -10 -8 0
-15 -4 -15 -8 0 -5 -16 -14 -35 -22 -19 -8 -35 -17 -35 -22 0 -4 -7 -8 -15 -8
-8 0 -15 -4 -15 -10 0 -5 -7 -10 -15 -10 -8 0 -15 -4 -15 -10 0 -5 -6 -10 -13
-10 -7 0 -23 -9 -35 -20 -12 -11 -25 -20 -29 -20 -5 0 -15 -9 -23 -20 -8 -11
-20 -20 -27 -20 -7 0 -13 -4 -13 -8 0 -4 -13 -15 -29 -25 -58 -34 -253 -220
-316 -301 -16 -21 -36 -45 -42 -52 -7 -7 -13 -17 -13 -23 0 -5 -12 -19 -26
-30 -14 -11 -23 -25 -19 -31 3 -5 -1 -13 -9 -16 -9 -3 -16 -12 -16 -20 0 -8
-4 -14 -9 -14 -5 0 -11 -9 -14 -21 -3 -12 -10 -18 -15 -15 -6 3 -8 -2 -5 -14
4 -14 0 -20 -10 -20 -10 0 -13 -6 -10 -20 4 -14 0 -20 -12 -20 -11 0 -15 -5
-11 -15 3 -9 -1 -18 -9 -21 -8 -4 -15 -17 -15 -31 0 -17 -4 -23 -13 -20 -10 4
-13 -2 -9 -19 2 -14 0 -24 -7 -24 -6 0 -11 -11 -11 -25 0 -15 -6 -25 -14 -25
-9 0 -12 -7 -9 -18 2 -10 -2 -24 -10 -31 -8 -6 -13 -20 -10 -30 2 -9 -3 -23
-11 -30 -9 -8 -16 -24 -16 -37 0 -12 -4 -26 -10 -29 -5 -3 -10 -19 -10 -35 0
-16 -4 -32 -10 -35 -5 -3 -10 -21 -10 -39 0 -17 -4 -36 -9 -41 -5 -6 -11 -28
-15 -50 -8 -58 -23 -160 -35 -235 -26 -164 -4 -433 57 -695 9 -35 59 -183 81
-240 25 -61 111 -229 148 -288 24 -37 43 -72 43 -77 0 -6 5 -10 10 -10 6 0 10
-7 10 -15 0 -8 3 -15 8 -15 4 0 21 -20 37 -45 17 -24 34 -45 39 -45 4 0 6 -9
3 -20 -3 -11 -1 -17 4 -14 5 3 21 -9 36 -26 15 -18 33 -38 40 -45 7 -8 13 -16
13 -18 0 -7 163 -167 211 -207 23 -19 57 -50 75 -68 18 -17 38 -32 44 -32 5 0
10 -4 10 -10 0 -5 8 -10 18 -10 10 0 24 -9 32 -20 8 -11 20 -20 27 -20 7 0 13
-4 13 -10 0 -5 7 -10 15 -10 8 0 15 -4 15 -8 0 -5 16 -14 35 -22 19 -8 35 -17
35 -22 0 -4 7 -8 15 -8 8 0 15 -4 15 -10 0 -5 9 -10 20 -10 11 0 20 -3 20 -7
0 -9 49 -33 67 -33 7 0 13 -4 13 -10 0 -5 9 -10 20 -10 11 0 20 -4 20 -10 0
-5 9 -10 19 -10 11 0 23 -4 26 -10 3 -5 15 -10 26 -10 10 0 19 -4 19 -10 0 -5
11 -10 25 -10 14 0 25 -4 25 -10 0 -5 11 -10 25 -10 14 0 25 -4 25 -10 0 -5
14 -10 30 -10 17 0 30 -4 30 -10 0 -5 9 -10 20 -10 32 0 23 17 -17 37 -160 75
-344 221 -492 393 -40 47 -77 89 -82 94 -5 6 -20 -1 -37 -17 -27 -26 -29 -26
-44 -10 -79 92 -136 286 -139 480 -1 39 -7 82 -15 95 -37 66 -54 104 -54 123
0 12 -31 51 -81 100 -120 120 -261 297 -246 311 5 6 127 -63 220 -123 82 -54
164 -93 194 -93 18 0 23 7 29 47 14 94 17 185 8 253 -3 25 -1 55 3 68 5 12 3
73 -3 140 -7 64 -10 121 -7 126 3 4 28 -43 54 -105 27 -63 60 -127 73 -143
l23 -30 29 27 c16 15 29 31 29 35 0 5 26 38 58 74 31 36 57 69 57 74 0 6 20
27 45 47 25 21 45 43 45 50 0 7 25 34 55 60 31 27 53 52 50 57 -3 4 7 15 21
24 20 14 45 55 45 76 0 3 7 13 16 22 13 14 13 21 4 32 -10 11 -10 20 -1 37 9
17 9 27 -1 46 -10 19 -10 28 -1 43 18 29 -13 35 -168 35 -74 0 -181 4 -238 9
-112 10 -124 7 -194 -48 -32 -25 -43 -28 -84 -23 -36 4 -54 13 -86 43 -22 22
-49 56 -60 78 l-20 38 29 30 c15 16 56 43 91 60 l63 31 42 -23 c23 -12 58 -38
77 -56 l35 -33 75 9 c41 5 113 18 160 29 47 10 110 22 141 26 31 3 65 12 75
20 18 13 18 14 1 32 -9 11 -17 27 -17 36 0 9 -4 19 -10 22 -5 3 -22 32 -36 63
-14 31 -39 83 -55 115 -16 32 -29 67 -29 78 0 11 -6 30 -14 42 -8 12 -19 55
-25 96 -7 41 -14 77 -16 81 -7 12 24 128 49 179 13 28 46 81 73 118 26 37 61
87 76 111 18 28 58 62 118 102 50 33 118 81 151 106 45 35 74 49 123 59 37 8
93 31 132 53 38 22 85 43 105 46 21 4 63 19 95 34 l58 26 300 1 c297 0 301 0
409 -29 292 -75 506 -174 696 -321 30 -24 73 -47 95 -52 36 -8 42 -14 65 -68
14 -33 44 -94 68 -136 23 -42 45 -90 48 -107 4 -18 11 -36 18 -41 6 -5 57 -20
113 -34 108 -27 154 -45 160 -63 2 -6 -57 -31 -140 -58 -168 -55 -172 -58
-166 -158 0 -16 112 -243 130 -264 5 -6 34 -19 64 -29 60 -19 106 -64 126
-123 9 -27 24 -39 88 -71 117 -59 248 -152 324 -228 68 -68 125 -143 110 -143
-5 0 -49 30 -98 66 -149 109 -392 243 -443 244 -27 0 -21 -30 24 -141 89 -216
148 -418 179 -609 8 -52 20 -126 26 -163 11 -66 7 -99 -8 -61 -3 10 -9 21 -12
24 -5 4 -23 36 -53 90 -9 18 -99 224 -129 298 -17 40 -26 65 -33 85 -5 15 -22
17 -165 17 -170 0 -170 0 -163 -52 4 -26 7 -28 52 -28 l49 0 -6 -57 c-3 -32
-9 -65 -14 -74 -4 -9 -13 -45 -20 -80 -16 -92 -26 -146 -39 -214 -6 -33 -15
-87 -20 -120 -17 -113 -22 -134 -34 -144 -11 -9 -100 -16 -159 -13 -40 3 -78
47 -102 118 -30 92 -75 165 -112 183 -36 18 -42 31 -15 31 28 0 115 45 154 79
54 47 78 100 78 174 0 97 -48 154 -155 184 -42 12 -501 18 -530 7 -9 -4 -15
-18 -15 -35 0 -32 27 -49 77 -49 23 0 25 -3 19 -37 -3 -21 -10 -67 -15 -103
-5 -36 -18 -99 -29 -140 -11 -41 -25 -106 -32 -145 -7 -38 -16 -80 -21 -93 -5
-13 -9 -34 -9 -47 0 -14 -5 -45 -12 -70 -13 -46 -39 -65 -94 -65 -20 0 -24 -5
-24 -30 l0 -30 201 0 200 0 -3 27 c-3 26 -7 28 -53 33 -58 6 -57 3 -30 120 10
41 21 94 25 118 4 24 11 47 17 53 15 15 108 -9 131 -34 18 -20 52 -103 52
-128 0 -6 14 -39 31 -75 24 -50 41 -70 73 -88 40 -23 48 -24 306 -28 l265 -3
0 35 c0 34 -1 35 -45 40 l-45 5 3 50 c2 28 7 59 11 70 16 39 48 176 58 250 3
22 9 44 14 50 5 5 9 24 9 41 0 18 5 45 10 60 l11 28 14 -28 c8 -16 15 -34 15
-41 0 -7 3 -15 8 -17 10 -4 42 -67 42 -84 0 -8 5 -14 10 -14 6 0 10 -6 10 -14
0 -8 23 -59 51 -113 123 -233 139 -266 139 -277 0 -20 34 -46 59 -46 20 0 21
-1 7 -16 -9 -8 -16 -26 -16 -39 0 -36 -35 -179 -65 -265 -51 -145 -51 -144
-27 -177 25 -35 19 -71 -22 -133 -24 -37 -111 -90 -147 -90 -10 0 -42 -26 -73
-58 -30 -31 -80 -72 -110 -91 -52 -31 -58 -33 -74 -18 -17 15 -23 14 -88 -28
-107 -69 -273 -167 -337 -200 -31 -16 -57 -33 -57 -37 0 -12 38 -10 45 2 3 6
17 10 31 10 13 0 24 5 24 10 0 6 14 10 30 10 17 0 30 5 30 10 0 6 11 10 25 10
14 0 25 5 25 10 0 6 11 10 25 10 14 0 25 5 25 10 0 6 9 10 20 10 11 0 20 5 20
10 0 6 11 10 25 10 14 0 25 5 25 10 0 6 9 10 20 10 11 0 20 5 20 10 0 6 9 10
20 10 11 0 20 5 20 10 0 6 7 10 15 10 8 0 15 5 15 10 0 6 6 10 13 10 18 0 67
24 67 33 0 4 7 7 15 7 8 0 15 3 15 8 0 4 15 14 33 22 17 7 41 22 51 32 11 10
26 18 33 18 7 0 13 5 13 10 0 6 4 10 10 10 16 0 66 44 126 111 29 32 85 69
104 69 9 0 113 101 127 123 4 7 28 30 54 53 25 22 43 46 41 52 -2 7 1 12 7 12
6 0 29 26 53 58 23 31 50 66 60 76 10 11 18 24 18 28 0 5 11 21 25 36 14 15
25 32 25 39 0 7 5 13 10 13 6 0 10 9 10 20 0 11 3 20 8 20 4 0 15 18 25 40 9
22 21 40 27 40 5 0 10 9 10 20 0 11 5 20 10 20 6 0 10 11 10 25 0 14 5 25 10
25 6 0 10 11 10 25 0 14 5 25 10 25 6 0 10 11 10 25 0 14 7 28 15 31 9 4 15
19 15 35 0 16 5 29 10 29 6 0 10 14 10 30 0 17 5 30 10 30 6 0 10 18 10 40 0
22 4 40 9 40 4 0 11 21 14 47 3 26 10 49 16 51 6 2 11 29 11 63 0 33 4 59 10
59 6 0 10 97 10 270 0 173 -4 270 -10 270 -6 0 -10 26 -10 59 0 34 -5 61 -11
63 -6 2 -13 25 -16 51 -3 26 -10 47 -14 47 -5 0 -9 18 -9 40 0 22 -4 40 -10
40 -5 0 -10 14 -10 30 0 17 -4 30 -10 30 -5 0 -10 13 -10 29 0 16 -6 31 -15
35 -8 3 -15 17 -15 31 0 14 -4 25 -10 25 -5 0 -10 11 -10 25 0 14 -4 25 -10
25 -5 0 -10 11 -10 25 0 14 -4 25 -10 25 -5 0 -10 9 -10 20 0 11 -5 20 -10 20
-6 0 -18 18 -27 40 -10 22 -21 40 -25 40 -5 0 -8 9 -8 20 0 11 -4 20 -10 20
-5 0 -10 6 -10 13 0 7 -11 24 -25 39 -14 15 -25 31 -25 36 0 4 -8 17 -18 28
-10 10 -37 45 -60 77 -24 31 -47 57 -53 57 -6 0 -9 5 -7 12 2 6 -16 30 -41 52
-26 23 -50 47 -54 54 -18 27 -137 139 -207 192 -25 19 -46 38 -48 43 -2 4 -8
7 -13 7 -8 0 -35 20 -64 48 -8 6 -18 12 -24 12 -6 0 -11 5 -11 10 0 6 -6 10
-13 10 -7 0 -22 8 -33 18 -10 10 -34 25 -51 32 -18 8 -33 18 -33 22 0 5 -7 8
-15 8 -8 0 -15 3 -15 8 0 8 -49 32 -67 32 -7 0 -13 5 -13 10 0 6 -7 10 -15 10
-8 0 -15 5 -15 10 0 6 -9 10 -20 10 -11 0 -20 5 -20 10 0 6 -9 10 -20 10 -11
0 -20 5 -20 10 0 6 -11 10 -25 10 -14 0 -25 5 -25 10 0 6 -9 10 -20 10 -11 0
-20 5 -20 10 0 6 -11 10 -25 10 -14 0 -25 5 -25 10 0 6 -11 10 -25 10 -14 0
-25 5 -25 10 0 6 -13 10 -30 10 -16 0 -30 5 -30 10 0 6 -11 10 -24 10 -14 0
-28 5 -31 10 -3 6 -19 10 -36 10 -16 0 -29 5 -29 10 0 6 -16 10 -35 10 -19 0
-35 5 -35 10 0 6 -18 10 -40 10 -22 0 -40 5 -40 10 0 6 -20 10 -45 10 -25 0
-45 5 -45 10 0 6 -22 10 -49 10 -28 0 -53 5 -56 10 -3 6 -37 10 -75 10 -38 0
-72 5 -75 10 -8 13 -594 13 -615 0z m1137 -2245 c53 -31 68 -116 34 -191 -22
-48 -68 -86 -131 -108 -44 -15 -111 -21 -122 -11 -3 3 6 49 19 103 37 153 43
181 43 209 0 26 0 26 64 21 35 -3 77 -13 93 -23z"/>
<path d="M3654 3105 c-4 -9 -4 -27 -1 -40 2 -14 1 -28 -4 -31 -5 -2 -4 -17 2
-31 6 -17 6 -30 0 -36 -11 -11 -4 -66 10 -82 5 -5 9 -24 9 -42 0 -21 6 -36 15
-39 8 -4 15 -14 16 -23 0 -9 44 -54 96 -100 81 -71 103 -86 142 -92 77 -13
161 -11 167 4 9 26 -90 339 -120 376 -6 8 -24 20 -41 27 -31 13 -95 70 -95 84
0 5 -7 16 -16 24 -22 23 -172 23 -180 1z"/>
<path d="M1620 2564 c-17 -5 -70 -76 -70 -93 0 -6 -4 -11 -10 -11 -5 0 -10 -5
-10 -11 0 -6 -11 -25 -25 -43 -14 -18 -25 -36 -25 -39 0 -4 -25 -45 -55 -92
-30 -46 -55 -88 -55 -91 0 -4 -16 -29 -35 -55 -19 -27 -35 -51 -35 -54 0 -3
-21 -37 -47 -77 -25 -40 -54 -86 -63 -103 -10 -16 -26 -45 -36 -63 -11 -18
-33 -37 -51 -44 -26 -10 -33 -18 -33 -39 l0 -28 136 -3 c75 -2 140 0 146 3 5
3 8 19 6 35 -3 26 -7 29 -45 32 -29 2 -43 8 -43 18 0 8 4 14 9 14 5 0 11 8 14
18 3 9 22 44 42 77 20 33 38 67 41 76 5 13 30 17 142 23 76 4 145 4 153 1 17
-6 29 -70 32 -170 2 -43 -1 -50 -18 -53 -60 -9 -65 -12 -65 -42 l0 -30 383 2
382 3 0 25 c0 22 -5 26 -47 30 -26 3 -50 9 -54 13 -4 3 -2 26 4 49 6 24 16 66
22 93 7 28 14 58 17 68 4 15 17 17 97 17 238 0 396 128 396 320 0 38 -4 72
-10 75 -5 3 -10 15 -10 25 0 10 -20 36 -44 57 -66 58 -110 66 -380 66 l-231 0
0 -34 c0 -33 1 -34 44 -37 l43 -3 -5 -47 c-3 -26 -13 -78 -22 -117 -9 -38 -21
-92 -26 -120 -18 -83 -45 -221 -54 -275 -10 -60 -28 -124 -38 -137 -13 -17
-134 -17 -167 0 -22 11 -27 24 -42 117 -19 117 -35 210 -49 285 -10 55 -22
126 -38 225 -6 36 -14 83 -19 105 l-7 40 -65 2 c-36 0 -72 -1 -80 -3z m940
-102 c68 -33 88 -132 49 -237 -31 -84 -89 -121 -218 -141 l-44 -7 6 44 c7 49
17 97 42 214 10 44 20 95 22 113 5 31 6 32 57 32 28 0 66 -8 86 -18z m-937
-139 c9 -75 25 -165 36 -200 5 -18 6 -35 3 -37 -4 -2 -55 -1 -114 3 l-107 6
39 61 c48 76 85 139 107 182 9 17 20 32 24 32 4 0 9 -21 12 -47z"/>
</g>
</svg>
